<svg xmlns="http://www.w3.org/2000/svg" width="97.67" height="92.01" viewBox="0 0 97.67 92.01"><title>Asset 1@1x</title><path d="M70.09,74.14a17.06,17.06,0,0,0-.45-5.67c-1.26-4.87-.63-9.73.43-14.58A30.55,30.55,0,0,0,70.84,48c0-2.16-1-3.09-3.14-3.2q-4.8-.26-9.6-.36A5.58,5.58,0,0,1,53.49,42c-.81-1.13-1.48-2.35-2.2-3.54-.46-.77-.29-1.31.52-1.8,1.84-1.12,3.68-2.26,5.41-3.54a11.8,11.8,0,0,0,4.46-5.44c.65-1.57,2.68-2.75,3.77-4.07s3.47-1.77,4.49-3.38c1.63-2.55.79-6.7,2.11-9.44a8.25,8.25,0,0,1,1.3-1.87A1,1,0,0,1,75,9a10.3,10.3,0,0,1,1.22,2.29c1.09,3.16,2.11,6.33,3.13,9.52.27.85,1.82,1.51,2.52,2.11C85,25.58,86.37,29.17,87.18,33c.43,2-.92,5.38-.75,7.46.22,2.61,1.82,3.63,3.08,5.85.51.89,1,1.76,1.58,2.62A56.49,56.49,0,0,0,95,40.65a41.83,41.83,0,0,0,2.69-14.49,26.8,26.8,0,0,0-7.33-18.5A24.27,24.27,0,0,0,55,7.66a26.32,26.32,0,0,0-6.11,10.47A26.46,26.46,0,0,0,42.72,7.66a24.27,24.27,0,0,0-35.39,0A26.8,26.8,0,0,0,0,26.16,42.07,42.07,0,0,0,2.69,40.65a57.6,57.6,0,0,0,5,10.12Q9,53,10.6,55.21c.45-.18.91-.36,1.36-.52,2.9-1,4.17-3,4.32-6.09a25.28,25.28,0,0,1,1-5.71,10.47,10.47,0,0,1,3.9-5.55,3.47,3.47,0,0,0,1.33-2.23,16,16,0,0,1,2.86-6.66c1.06-1.37,1.93-1.92,3-1.87-.31,3.09.86,5.73,2,8.37A2.81,2.81,0,0,0,32,36.49a25.41,25.41,0,0,1,4,2.06,6.69,6.69,0,0,1,1.55,2,2.4,2.4,0,0,1,.31,1,10.06,10.06,0,0,0,3.16,6,1.43,1.43,0,0,1,.22,2L39,52.73a3.43,3.43,0,0,1-3.24,1.52c-1-.06-2,0-3-.17s-1.09.26-1.09,1A8.92,8.92,0,0,0,33,59.57a41.51,41.51,0,0,1,2.56,5.34,9,9,0,0,1-.42,7c-.46,1-.93,2-1.37,3a12.07,12.07,0,0,0-1,3.75l.61.51L48.84,92,64.33,79.23C64.75,78.89,67,77,70.09,74.14Z" fill="#fff"/></svg>