<svg xmlns="http://www.w3.org/2000/svg" width="341.97" height="94.24" viewBox="0 0 341.97 94.24"><title>pawmate_final_logo_outlines</title><path d="M71.34,75.39a17.06,17.06,0,0,0-.45-5.67c-1.26-4.87-.63-9.73.43-14.58a30.55,30.55,0,0,0,.77-5.87c0-2.16-1-3.09-3.14-3.2q-4.8-.26-9.6-.36a5.58,5.58,0,0,1-4.61-2.46c-.81-1.13-1.48-2.35-2.2-3.54-.46-.77-.29-1.31.52-1.8,1.84-1.12,3.68-2.26,5.41-3.54a11.8,11.8,0,0,0,4.46-5.44c.65-1.57,2.68-2.75,3.77-4.07s3.47-1.77,4.49-3.38c1.63-2.55.79-6.7,2.11-9.44a8.25,8.25,0,0,1,1.3-1.87,1,1,0,0,1,1.67.1,10.3,10.3,0,0,1,1.22,2.29c1.09,3.16,2.11,6.33,3.13,9.52.27.85,1.82,1.51,2.52,2.11,3.09,2.64,4.48,6.23,5.29,10.07.43,2-.92,5.38-.75,7.46.22,2.61,1.82,3.63,3.08,5.85.51.89,1,1.76,1.58,2.62a56.49,56.49,0,0,0,3.89-8.29,41.83,41.83,0,0,0,2.69-14.49,26.8,26.8,0,0,0-7.33-18.5,24.27,24.27,0,0,0-35.39,0,26.32,26.32,0,0,0-6.11,10.47A26.46,26.46,0,0,0,44,8.91a24.27,24.27,0,0,0-35.39,0,26.8,26.8,0,0,0-7.33,18.5A42.07,42.07,0,0,0,3.94,41.9,57.6,57.6,0,0,0,8.91,52q1.34,2.19,2.94,4.44c.45-.18.91-.36,1.36-.52,2.9-1,4.17-3,4.32-6.09a25.28,25.28,0,0,1,1-5.71,10.47,10.47,0,0,1,3.9-5.55,3.47,3.47,0,0,0,1.33-2.23,16,16,0,0,1,2.86-6.66c1.06-1.37,1.93-1.92,3-1.87-.31,3.09.86,5.73,2,8.37a2.81,2.81,0,0,0,1.58,1.54,25.41,25.41,0,0,1,4,2.06,6.69,6.69,0,0,1,1.55,2,2.4,2.4,0,0,1,.31,1,10.06,10.06,0,0,0,3.16,6,1.43,1.43,0,0,1,.22,2L40.29,54a3.43,3.43,0,0,1-3.24,1.52c-1-.06-2,0-3-.17s-1.09.26-1.09,1a8.92,8.92,0,0,0,1.27,4.45,41.51,41.51,0,0,1,2.56,5.34,9,9,0,0,1-.42,7c-.46,1-.93,2-1.37,3A12.07,12.07,0,0,0,34,80l.61.51,15.5,12.78L65.58,80.48C66,80.14,68.24,78.27,71.34,75.39Z" fill="#c33f04"/><path d="M120.73,32.28q0,3.21-.2,8.43c-.19,4.22-.29,7-.32,8.39l-.3,17.49c-.11,6.39-.34,10.07-.68,11.06a1.09,1.09,0,0,1-1.55.77,1,1,0,0,1-.81-1.47q.38-1.17.6-14.54l.28-15.64c.13-2.75.31-7.6.51-14.54q.38-13.35.45-13.17c-.31-.74-.06-1.22.73-1.44a1.26,1.26,0,0,1,1.66.82Q120.51,16.94,120.73,32.28Zm18.64-10.8q5.25,11.83-19.15,27c-.71.45-1.25.27-1.61-.56a1.4,1.4,0,0,1,.56-1.92q9.67-6,14.59-12.41,5.75-7.46,2.5-12.7-3.07-5.07-9-.2a26.2,26.2,0,0,0-6.88,8.45c-.33.7-.56.36-.68-1a10,10,0,0,1,.14-3.3q1.84-6.87,9.43-8.62Q136.33,14.58,139.37,21.48Z" fill="#c33f04"/><path d="M159.76,37.44q.9,36.5.88,40.19a1.08,1.08,0,0,1-1.25,1.17,1.12,1.12,0,0,1-1.26-1.26q.1-13.53-.5-26.82c-.76.14-4,.15-9.71.05l-4.26-.07,0,2.33Q142.93,69.41,143,72a18.93,18.93,0,0,1-.4,5.71c-.19.64-.65.86-1.38.68s-1.17-1-1.14-2.35q.08-4.57.29-6.9T141,57.51q.59-19.11.65-19.86.74-17.13,7.49-21.4a5,5,0,0,1,2.25-.53Q159.22,15.86,159.76,37.44Zm-7.4,10.91c2.52,0,4.23,0,5.14.13-.18-3.29-.23-4.47-.16-3.56-.07-.85-.16-2.89-.25-6.12-.07-2.49-.2-4.53-.37-6.11q-1.56-14.4-4.94-14.33-8.4.12-8,29.84Q150.47,48.35,152.36,48.35Z" fill="#c33f04"/><path d="M177.85,75.73a1.13,1.13,0,0,1-.94,1.48c-.8.19-1.28-.09-1.44-.86q-.53-2.64-1.05-7.58-.57-5.32-1-7.66-.52-2.78-2-8.52-1.44-5.52-2-8.52-5.3-31.2-4.92-27.77c-.1-.8.25-1.18,1.07-1.17A1.27,1.27,0,0,1,167,16.34a69.41,69.41,0,0,0,1.52,8.29q1.35,6,1.71,8.34,1.92,12.51,2.51,14.68a140,140,0,0,1,3.51,15.18c.16,1,.4,3.15.73,6.47C177.23,72,177.53,74.18,177.85,75.73ZM183,50c.16-.75.63-1,1.41-.76a1.13,1.13,0,0,1,1,1.46q-.81,3.33-4.06,13.21a90.93,90.93,0,0,0-3.48,13.39c-.14.78-.59,1.06-1.38.81a1.24,1.24,0,0,1-1-1.52A91.43,91.43,0,0,1,179,63.23Q182.21,53.39,183,50Zm12.31,27.25a1,1,0,0,1-.86,1.43,1.08,1.08,0,0,1-1.52-.81,151,151,0,0,0-5.83-16.5q-3.75-9.3-3.85-11-.06-1.18,1.17-1.17a1.19,1.19,0,0,1,1.29,1.21q.06,1.68,5.68,14.61A110.64,110.64,0,0,1,195.32,77.27Zm8.84-60.54a1,1,0,0,1,1.67,0,1.08,1.08,0,0,1,0,1.72q-.45.48-2.31,11.74-.3,1.75-1.61,9c-.68,3.65-1.19,6.65-1.52,9Q198.54,61.51,198.16,63a74.09,74.09,0,0,0-1,7.37,27.73,27.73,0,0,1-1.53,7.27,1.23,1.23,0,0,1-1.64.76c-.79-.25-1-.74-.72-1.46q-.37.87,3-16.52c.45-2.16.89-5.22,1.31-9.16.48-4.3.89-7.37,1.21-9.21q1.82-10.49,3.4-18.36C203,19.53,203.68,17.22,204.16,16.73Z" fill="#c33f04"/><path d="M214.6,48q0,4.35.62,14.65c.36,6.24.52,11.13.49,14.64,0,.79-.43,1.18-1.25,1.17s-1.22-.42-1.21-1.21q0-5-.6-15.75-.61-10.24-.52-15.74c.06-3.25.21-8.14.48-14.67s.37-11.44.43-14.72c0-.79.44-1.18,1.29-1.16s1.23.41,1.21,1.21q0,3.33-.62,15.81Q214.53,41.94,214.6,48Zm15.67-1.44a1.1,1.1,0,0,1-1,1.48,1,1,0,0,1-1.44-.86Q226.29,40,220.45,30a51.18,51.18,0,0,1-2.28-5.31,16.26,16.26,0,0,0-2.82-5,7.1,7.1,0,0,1-1.44-2.92,1.1,1.1,0,0,1,.91-1.48,1.13,1.13,0,0,1,1.52.86,19.19,19.19,0,0,0,2.16,4.43q2.06,3.39,2.52,4.36,1.44,3.22,4.38,8.47A46,46,0,0,1,230.27,46.52Zm8.39-29.79a1,1,0,0,1,1.62,0,1.2,1.2,0,0,1,.1,1.8q.27-.3-1.89,7.71-2.69,9.93-2.63,9.88c-.49,1.17-1.28,2.88-2.38,5.15s-1.89,4-2.37,5.14c-.37.87-.51,1-.41.39-.13.79-.59,1.06-1.37.81a1.21,1.21,0,0,1-1-1.51,3.05,3.05,0,0,0,0-.35.94.94,0,0,1,.89-.86,60.11,60.11,0,0,1,2.84-6.37,82.34,82.34,0,0,0,3.49-11Q238.39,17,238.66,16.73Zm2.22,28.92q0,5,.73,15.84.66,10.29.6,15.83c0,.82-.43,1.19-1.25,1.12a1.2,1.2,0,0,1-1.25-1.3q.06-6-.58-16.8-.69-11.52-.68-16.8-.06-9.4.23-25.49,0-1.89,1.26-1.86c.85,0,1.26.65,1.24,1.91Q240.88,35.62,240.88,45.65Z" fill="#c33f04"/><path d="M268.45,37.44q.9,36.5.88,40.19a1.08,1.08,0,0,1-1.25,1.17,1.12,1.12,0,0,1-1.26-1.26q.1-13.53-.5-26.82c-.76.14-4,.15-9.71.05l-4.26-.07,0,2.33q-.69,16.38-.6,18.93a18.93,18.93,0,0,1-.4,5.71c-.19.64-.65.86-1.38.68s-1.17-1-1.14-2.35q.08-4.57.29-6.9t.56-11.59q.59-19.11.65-19.86.74-17.13,7.49-21.4a5.05,5.05,0,0,1,2.26-.53Q267.9,15.86,268.45,37.44Zm-7.4,10.91c2.52,0,4.23,0,5.14.13C266,45.19,266,44,266,44.92q-.11-1.28-.24-6.12c-.08-2.49-.2-4.53-.38-6.11q-1.56-14.4-4.94-14.33-8.4.12-8,29.84Q259.16,48.35,261.05,48.35Z" fill="#c33f04"/><path d="M308.78,18.35c-1.5,0-3.9,0-7.22.22q-4.57.22-7,.14c-.76,0-2.55-.23-5.35-.58a28.64,28.64,0,0,0-5.36-.31c-5.92.37-8.77.55-8.54.56a1.15,1.15,0,0,1-1.16-1.3c0-.82.42-1.19,1.21-1.12a27.94,27.94,0,0,0,5.14-.22,21.22,21.22,0,0,1,5.19-.17,87.33,87.33,0,0,0,10.67.89c1.31,0,3.18,0,5.58-.12,2.58-.08,4.44-.12,5.59-.13l0,.14,0,.17,1.23,0ZM295,76.6a1.17,1.17,0,0,1-.25,1.76,1,1,0,0,1-1.62-.16q-1.2-1.56-.92-7.67a190.63,190.63,0,0,0-.37-19.38q-2.07-34.41-1.63-32.47c-.19-.76.13-1.23.95-1.39a1.1,1.1,0,0,1,1.43.95q-.45-2.07,1.5,30.31.64,10.74.65,15.3Q294.79,76.35,295,76.6Z" fill="#c33f04"/><path d="M316.37,74.17l-.13.09-.14.13-.07,2c0,.93-.51,1.38-1.39,1.33s-1.3-.5-1.25-1.47q.39-9.93.08-29.66t.12-29.67c0-1,.5-1.43,1.43-1.38A1.26,1.26,0,0,1,316.4,17q-.43,9.89-.1,28.61Q316.66,65,316.37,74.17Zm19.53,1.58c.8-.08,1.17.3,1.13,1.11a1.31,1.31,0,0,1-1.26,1.35q-5.19.53-3.92.54a21.52,21.52,0,0,1-2.72-.35,14.46,14.46,0,0,0-2.76-.32q-4.23.28-12,.15l0-2.51q2.37,0,6.41-.06c2.41-.08,4.25-.09,5.54,0Q333.88,75.94,335.9,75.75Zm-.54-59.66c1.26,0,1.88.45,1.87,1.27s-.65,1.26-1.91,1.24c-2.46,0-5.77-.18-9.93-.39s-7.44-.31-9.93-.35l.05-2.46c2.49,0,5.8.16,9.92.34S332.9,16.05,335.36,16.09Zm-.56,32.17c1.26,0,1.88.44,1.87,1.26s-.65,1.22-1.91,1.2l-17.36-.31c-1.26,0-1.88-.44-1.87-1.26s.66-1.22,1.92-1.2Z" fill="#c33f04"/><path d="M121.73,32.28q0,3.21-.2,8.43c-.19,4.22-.29,7-.32,8.39l-.3,17.49c-.11,6.39-.34,10.07-.68,11.06a1.09,1.09,0,0,1-1.55.77,1,1,0,0,1-.81-1.47q.38-1.17.6-14.54l.28-15.64c.13-2.75.31-7.6.51-14.54q.38-13.35.45-13.17c-.31-.74-.06-1.22.73-1.44a1.26,1.26,0,0,1,1.66.82Q121.51,16.94,121.73,32.28Zm18.64-10.8q5.25,11.83-19.15,27c-.71.45-1.25.27-1.61-.56a1.4,1.4,0,0,1,.56-1.92q9.67-6,14.59-12.41,5.75-7.46,2.5-12.7-3.07-5.07-9-.2a26.2,26.2,0,0,0-6.88,8.45c-.33.7-.56.36-.68-1a10,10,0,0,1,.14-3.3q1.84-6.87,9.43-8.62Q137.33,14.58,140.37,21.48Z" fill="#c33f04"/><path d="M160.76,37.44q.9,36.5.88,40.19a1.08,1.08,0,0,1-1.25,1.17,1.12,1.12,0,0,1-1.26-1.26q.1-13.53-.5-26.82c-.76.14-4,.15-9.71.05l-4.26-.07,0,2.33Q143.93,69.41,144,72a18.93,18.93,0,0,1-.4,5.71c-.19.64-.65.86-1.38.68s-1.17-1-1.14-2.35q.08-4.57.29-6.9T142,57.51q.59-19.11.65-19.86.74-17.13,7.49-21.4a5,5,0,0,1,2.25-.53Q160.22,15.86,160.76,37.44Zm-7.4,10.91c2.52,0,4.23,0,5.14.13-.18-3.29-.23-4.47-.16-3.56-.07-.85-.16-2.89-.25-6.12-.07-2.49-.2-4.53-.37-6.11q-1.56-14.4-4.94-14.33-8.4.12-8,29.84Q151.47,48.35,153.36,48.35Z" fill="#c33f04"/><path d="M178.85,75.73a1.13,1.13,0,0,1-.94,1.48c-.8.19-1.28-.09-1.44-.86q-.53-2.64-1.05-7.58-.57-5.32-1-7.66-.52-2.78-2-8.52-1.44-5.52-2-8.52-5.3-31.2-4.92-27.77c-.1-.8.25-1.18,1.07-1.17A1.27,1.27,0,0,1,168,16.34a69.41,69.41,0,0,0,1.52,8.29q1.35,6,1.71,8.34,1.93,12.51,2.51,14.68a140,140,0,0,1,3.51,15.18c.16,1,.4,3.15.73,6.47C178.23,72,178.53,74.18,178.85,75.73ZM184,50c.16-.75.63-1,1.41-.76a1.13,1.13,0,0,1,1,1.46q-.81,3.33-4.06,13.21a90.93,90.93,0,0,0-3.48,13.39c-.14.78-.59,1.06-1.38.81a1.24,1.24,0,0,1-1-1.52A91.43,91.43,0,0,1,180,63.23Q183.21,53.39,184,50Zm12.31,27.25a1,1,0,0,1-.86,1.43,1.08,1.08,0,0,1-1.52-.81,151,151,0,0,0-5.83-16.5q-3.75-9.3-3.85-11-.06-1.18,1.17-1.17a1.19,1.19,0,0,1,1.29,1.21q.06,1.68,5.68,14.61A110.64,110.64,0,0,1,196.32,77.27Zm8.84-60.54a1,1,0,0,1,1.67,0,1.08,1.08,0,0,1,0,1.72q-.45.48-2.31,11.74-.3,1.75-1.61,9c-.68,3.65-1.19,6.65-1.52,9Q199.54,61.51,199.16,63a74.09,74.09,0,0,0-1,7.37,27.73,27.73,0,0,1-1.53,7.27,1.23,1.23,0,0,1-1.64.76c-.79-.25-1-.74-.72-1.46q-.37.87,3-16.52c.45-2.16.89-5.22,1.31-9.16.48-4.3.89-7.37,1.21-9.21q1.82-10.49,3.4-18.36C204,19.53,204.68,17.22,205.16,16.73Z" fill="#c33f04"/><path d="M215.6,48q0,4.35.62,14.65c.36,6.24.52,11.13.49,14.64,0,.79-.43,1.18-1.25,1.17s-1.22-.42-1.21-1.21q0-5-.6-15.75-.61-10.24-.52-15.74c.06-3.25.21-8.14.48-14.67s.37-11.44.43-14.72c0-.79.44-1.18,1.29-1.16s1.23.41,1.21,1.21q0,3.33-.62,15.81Q215.53,41.94,215.6,48Zm15.67-1.44a1.1,1.1,0,0,1-1,1.48,1,1,0,0,1-1.44-.86Q227.29,40,221.45,30a51.18,51.18,0,0,1-2.28-5.31,16.26,16.26,0,0,0-2.82-5,7.1,7.1,0,0,1-1.44-2.92,1.1,1.1,0,0,1,.91-1.48,1.13,1.13,0,0,1,1.52.86,19.19,19.19,0,0,0,2.16,4.43q2.06,3.39,2.52,4.36,1.44,3.22,4.38,8.47A46,46,0,0,1,231.27,46.52Zm8.39-29.79a1,1,0,0,1,1.62,0,1.2,1.2,0,0,1,.1,1.8q.27-.3-1.89,7.71-2.69,9.93-2.63,9.88c-.49,1.17-1.28,2.88-2.38,5.15s-1.89,4-2.37,5.14c-.37.87-.51,1-.41.39-.13.79-.59,1.06-1.37.81a1.21,1.21,0,0,1-1-1.51,3.05,3.05,0,0,0,0-.35.94.94,0,0,1,.89-.86,60.11,60.11,0,0,1,2.84-6.37,82.34,82.34,0,0,0,3.49-11Q239.39,17,239.66,16.73Zm2.22,28.92q0,5,.73,15.84.66,10.29.6,15.83c0,.82-.43,1.19-1.25,1.12a1.2,1.2,0,0,1-1.25-1.3q.06-6-.58-16.8-.69-11.52-.68-16.8-.06-9.4.23-25.49,0-1.89,1.26-1.86c.85,0,1.26.65,1.24,1.91Q241.88,35.62,241.88,45.65Z" fill="#c33f04"/><path d="M269.45,37.44q.9,36.5.88,40.19a1.08,1.08,0,0,1-1.25,1.17,1.12,1.12,0,0,1-1.26-1.26q.1-13.53-.5-26.82c-.76.14-4,.15-9.71.05l-4.26-.07,0,2.33q-.69,16.38-.6,18.93a18.93,18.93,0,0,1-.4,5.71c-.19.64-.65.86-1.38.68s-1.17-1-1.14-2.35q.08-4.57.29-6.9t.56-11.59q.59-19.11.65-19.86.74-17.13,7.49-21.4a5.05,5.05,0,0,1,2.26-.53Q268.9,15.86,269.45,37.44Zm-7.4,10.91c2.52,0,4.23,0,5.14.13C267,45.19,267,44,267,44.92q-.11-1.28-.24-6.12c-.08-2.49-.2-4.53-.38-6.11q-1.56-14.4-4.94-14.33-8.4.12-8,29.84Q260.16,48.35,262.05,48.35Z" fill="#c33f04"/><path d="M309.78,18.35c-1.5,0-3.9,0-7.22.22q-4.57.22-7,.14c-.76,0-2.55-.23-5.35-.58a28.64,28.64,0,0,0-5.36-.31c-5.92.37-8.77.55-8.54.56a1.15,1.15,0,0,1-1.16-1.3c0-.82.42-1.19,1.21-1.12a27.94,27.94,0,0,0,5.14-.22,21.22,21.22,0,0,1,5.19-.17,87.33,87.33,0,0,0,10.67.89c1.31,0,3.18,0,5.58-.12,2.58-.08,4.44-.12,5.59-.13l0,.14,0,.17,1.23,0ZM296,76.6a1.17,1.17,0,0,1-.25,1.76,1,1,0,0,1-1.62-.16q-1.2-1.56-.92-7.67a190.63,190.63,0,0,0-.37-19.38q-2.07-34.41-1.63-32.47c-.19-.76.13-1.23.95-1.39a1.1,1.1,0,0,1,1.43.95q-.45-2.07,1.5,30.31.64,10.74.65,15.3Q295.79,76.35,296,76.6Z" fill="#c33f04"/><path d="M317.37,74.17l-.13.09-.14.13-.07,2c0,.93-.51,1.38-1.39,1.33s-1.3-.5-1.25-1.47q.39-9.93.08-29.66t.12-29.67c0-1,.5-1.43,1.43-1.38A1.26,1.26,0,0,1,317.4,17q-.43,9.89-.1,28.61Q317.66,65,317.37,74.17Zm19.53,1.58c.8-.08,1.17.3,1.13,1.11a1.31,1.31,0,0,1-1.26,1.35q-5.19.53-3.92.54a21.52,21.52,0,0,1-2.72-.35,14.46,14.46,0,0,0-2.76-.32q-4.23.28-12,.15l0-2.51q2.37,0,6.41-.06c2.41-.08,4.25-.09,5.54,0Q334.88,75.94,336.9,75.75Zm-.54-59.66c1.26,0,1.88.45,1.87,1.27s-.65,1.26-1.91,1.24c-2.46,0-5.77-.18-9.93-.39s-7.44-.31-9.93-.35l.05-2.46c2.49,0,5.8.16,9.92.34S333.9,16.05,336.36,16.09Zm-.56,32.17c1.26,0,1.88.44,1.87,1.26s-.65,1.22-1.91,1.2l-17.36-.31c-1.26,0-1.88-.44-1.87-1.26s.66-1.22,1.92-1.2Z" fill="#c33f04"/></svg>